<svg id="Layer_1" data-name="Layer 1" xmlns="http://www.w3.org/2000/svg" xmlns:xlink="http://www.w3.org/1999/xlink" viewBox="0 0 593.75 150.83"><defs><style>.cls-1{fill:none;clip-rule:evenodd;}.cls-2,.cls-3{stroke:#fff;stroke-width:0.63px;}.cls-2,.cls-3,.cls-5,.cls-6,.cls-8{fill-rule:evenodd;}.cls-10,.cls-3{fill:#008265;}.cls-4{clip-path:url(#clip-path);}.cls-5,.cls-9{fill:#004990;}.cls-6,.cls-7{fill:#fff;}</style><clipPath id="clip-path" transform="translate(-13.13 -12.07)"><polygon class="cls-1" points="84.55 73.47 84.48 71.6 84.49 69.27 84.41 67.4 84.42 66.58 84.3 66.45 84.22 66.09 83.88 65.57 83.43 64.91 82.95 64.37 82.17 63.9 81.49 63.68 80.48 63.63 79.45 63.7 78.4 63.89 77.38 63.96 76.37 63.91 75.64 63.92 74.92 63.92 74.47 63.96 74.33 63.94 74.23 63.7 73.94 62.95 73.97 62.02 74.17 61 74.62 60.14 75.19 59.42 75.84 59.06 76.77 58.74 78.01 58.35 79.28 57.74 80.28 57.08 80.73 56.22 80.83 54.96 81.01 53.24 81.01 51.72 80.97 51.13 81.13 51.04 81.58 51 82.21 50.75 83.09 50.66 83.86 50.43 84.58 50.43 85.17 50.4 85.59 50.47 86.5 48.75 87.98 44.79 89.31 40.81 89.96 38.94 39.02 12.49 29.06 29.08 28.89 29.17 28.24 29.53 27.41 30.1 26.7 30.8 25.94 31.73 25.42 32.93 25.3 34.3 25.75 35.77 27.04 38.89 27.7 41.55 28.08 43.36 28.09 44.06 28.02 44.4 27.59 45.14 27.1 46.23 26.42 47.52 25.58 48.9 24.47 50.12 23.13 51.08 21.71 51.67 20.48 52.05 19.97 52.44 19.86 53 20.2 53.52 20.66 54.18 21.39 54.88 22.11 55.69 22.8 56.61 22.93 57.45 22.96 58.85 23.54 60.34 25.18 61.64 25.88 61.76 26.63 61.64 27.4 61.41 28.29 61.32 29.15 61.34 29.82 61.68 30.51 62.6 30.96 64.07 31.27 64.7 31.89 65.27 32.65 65.85 33.57 66.35 34.35 66.82 34.97 67.38 35.3 67.9 35.31 68.6 35.12 69.62 35.23 70.57 35.52 71.31 35.96 72.08 36.41 72.73 37.03 73.3 37.65 73.86 38.15 74.29 38.98 75.23 39.79 76.29 40.59 77.47 41.43 79.11 41.81 79.41 42.49 79.63 43.3 79.99 44.1 80.35 45.02 80.85 45.76 81.55 46.19 82.31 46.28 83.38 45.96 84.26 45.41 84.87 44.63 85.21 43.74 85.3 42.87 85.28 42.17 85.17 41.6 85.08 41.46 85.06 37.58 87.94 34.23 93.34 29.67 96 29.58 96.45 29.25 97.45 28.43 98.72 26.5 99.69 26.18 99.87 25.87 99.94 25.41 100.1 25.08 100.28 24.63 101.14 24.45 101.35 23.94 101.73 23.11 102.3 22.25 102.98 21.26 103.64 20.52 104.45 19.83 105.04 19.44 105.56 18.96 106.53 18.63 107.53 18.09 108.84 17.37 110.36 16.09 112.48 14.71 115.18 13.51 117.66 13.45 119.52 13.79 120.03 14.45 120.37 15.25 120.73 16.07 120.98 16.87 121.34 17.56 121.56 18.05 121.99 18.37 122.62 18.27 123.89 17.96 124.77 17.39 125.5 17.21 126.4 17.41 126.9 17.58 127.51 18.02 128.27 18.6 129.06 19.17 129.85 19.89 130.66 20.72 131.61 21.72 132.47 22.62 133.08 23.4 133.55 24.08 133.77 24.64 133.86 25.23 133.84 25.65 133.9 26.05 134.08 26.43 134.38 27.08 135.53 27.65 137.13 28.21 138.73 28.75 139.75 29.47 139.75 30.3 139.18 31.11 138.73 32.2 139.13 33.11 140.44 33.81 142.06 34.12 143.51 34.51 144.5 34.87 144.91 35.33 144.75 35.96 144.5 36.87 144.29 37.6 144.29 38.32 144.29 39.16 144.42 40.17 144.46 41.04 144.48 41.62 144.46 41.71 144.55 41.85 144.57 42.53 149.99 43.05 157.06 44.79 160.56 50.37 157.95 52.59 152.37 53.26 151.89 54.64 150.71 56.09 149.19 56.65 147.77 57.27 145.3 58.54 141.66 60.11 137.95 61.55 135.74 62.43 134.94 63.55 133.61 64.88 131.96 66.23 130.19 67.58 128.42 68.77 126.75 69.73 125.5 70.32 124.66 71.43 121.93 73.08 117.06 74.75 112.09 75.87 109.24 76.61 106.1 77.38 100.51 78.32 94.84 79.71 91.33 81.28 89.95 82.62 89 83.75 88.37 84.47 87.66 84.64 85.25 84.75 80.84 84.6 76.28 84.55 73.47 84.55 73.47"/></clipPath></defs><title>NJCourts_logo_2_COLOR</title><polygon class="cls-2" points="71.42 61.4 71.34 59.52 71.35 57.2 71.27 55.32 71.28 54.51 71.16 54.37 71.08 54.01 70.75 53.49 70.3 52.84 69.82 52.3 69.04 51.83 68.35 51.6 67.35 51.56 66.32 51.63 65.27 51.81 64.24 51.88 63.23 51.84 62.51 51.84 61.78 51.84 61.34 51.89 61.2 51.87 61.1 51.62 60.8 50.87 60.84 49.95 61.03 48.93 61.48 48.07 62.06 47.35 62.71 46.98 63.64 46.66 64.87 46.28 66.15 45.66 67.14 45.01 67.6 44.15 67.69 42.88 67.87 41.16 67.87 39.65 67.84 39.06 68 38.97 68.44 38.93 69.07 38.67 69.96 38.58 70.73 38.36 71.45 38.35 72.04 38.33 72.46 38.4 73.37 36.68 74.84 32.72 76.18 28.74 76.83 26.86 25.89 0.41 15.92 17 15.76 17.09 15.11 17.46 14.28 18.02 13.56 18.73 12.8 19.65 12.29 20.85 12.17 22.23 12.62 23.7 13.91 26.81 14.56 29.48 14.95 31.28 14.96 31.98 14.89 32.32 14.46 33.07 13.96 34.16 13.29 35.45 12.44 36.83 11.34 38.05 10 39 8.58 39.59 7.35 39.98 6.84 40.37 6.73 40.93 7.07 41.45 7.52 42.1 8.26 42.8 8.97 43.61 9.67 44.54 9.8 45.37 9.82 46.77 10.41 48.27 12.05 49.57 12.75 49.68 13.5 49.57 14.27 49.34 15.15 49.25 16.02 49.27 16.68 49.6 17.37 50.53 17.82 52 18.13 52.63 18.75 53.19 19.51 53.78 20.43 54.27 21.21 54.75 21.83 55.31 22.17 55.83 22.18 56.53 21.99 57.55 22.09 58.49 22.39 59.24 22.82 60.01 23.28 60.66 23.9 61.23 24.51 61.79 25.01 62.22 25.84 63.16 26.66 64.22 27.45 65.39 28.3 67.04 28.68 67.34 29.36 67.56 30.16 67.92 30.96 68.28 31.88 68.77 32.62 69.47 33.05 70.24 33.14 71.3 32.83 72.18 32.28 72.79 31.49 73.14 30.6 73.23 29.74 73.21 29.03 73.1 28.47 73.01 28.33 72.99 24.45 75.86 21.1 81.27 16.54 83.93 16.45 84.38 16.11 85.38 15.29 86.64 13.37 87.62 13.04 87.8 12.74 87.87 12.27 88.03 11.95 88.21 11.5 89.07 11.31 89.27 10.8 89.66 9.97 90.23 9.12 90.91 8.12 91.56 7.38 92.38 6.7 92.97 6.31 93.49 5.83 94.46 5.5 95.45 4.96 96.77 4.23 98.28 2.96 100.41 1.58 103.1 0.38 105.59 0.32 107.44 0.65 107.96 1.31 108.3 2.11 108.66 2.94 108.91 3.74 109.27 4.42 109.49 4.92 109.92 5.24 110.55 5.14 111.81 4.83 112.7 4.25 113.42 4.08 114.33 4.28 114.83 4.45 115.43 4.88 116.2 5.46 116.99 6.04 117.78 6.75 118.59 7.59 119.54 8.59 120.39 9.48 121 10.26 121.47 10.94 121.7 11.51 121.79 12.09 121.76 12.52 121.83 12.92 122.01 13.3 122.3 13.95 123.45 14.51 125.05 15.08 126.66 15.61 127.68 16.34 127.67 17.17 127.11 17.98 126.65 19.06 127.06 19.97 128.36 20.68 129.99 20.98 131.43 21.38 132.43 21.73 132.83 22.2 132.67 22.83 132.42 23.73 132.22 24.46 132.22 25.18 132.22 26.03 132.35 27.04 132.39 27.9 132.41 28.49 132.39 29.05 132.48 29.19 132.5 30.33 137.92 30.15 144.99 31.66 148.49 37.23 145.88 39.45 140.29 40.12 139.81 41.51 138.63 42.96 137.12 43.52 135.69 44.13 133.23 45.4 129.59 46.98 125.88 48.42 123.66 49.29 122.87 50.42 121.53 51.74 119.88 53.1 118.11 54.45 116.35 55.63 114.67 56.6 113.43 57.19 112.59 58.29 109.85 59.94 104.99 61.61 100.02 62.73 97.17 63.48 94.03 64.25 88.44 65.18 82.77 66.57 79.26 68.14 77.88 69.48 76.93 70.62 76.29 71.33 75.59 71.5 73.17 71.61 68.77 71.47 64.2 71.42 61.4 71.42 61.4"/><polygon class="cls-3" points="71.42 61.4 71.34 59.52 71.35 57.2 71.27 55.32 71.28 54.51 71.16 54.37 71.08 54.01 70.75 53.49 70.3 52.84 69.82 52.3 69.04 51.83 68.35 51.6 67.35 51.56 66.32 51.63 65.27 51.81 64.24 51.88 63.23 51.84 62.51 51.84 61.78 51.84 61.34 51.89 61.2 51.87 61.1 51.62 60.8 50.87 60.84 49.95 61.03 48.93 61.48 48.07 62.06 47.35 62.71 46.98 63.64 46.66 64.87 46.28 66.15 45.66 67.14 45.01 67.6 44.15 67.69 42.88 67.87 41.16 67.87 39.65 67.84 39.06 68 38.97 68.44 38.93 69.07 38.67 69.96 38.58 70.73 38.36 71.45 38.35 72.04 38.33 72.46 38.4 73.37 36.68 74.84 32.72 76.18 28.74 76.83 26.86 25.89 0.41 15.92 17 15.76 17.09 15.11 17.46 14.28 18.02 13.56 18.73 12.8 19.65 12.29 20.85 12.17 22.23 12.62 23.7 13.91 26.81 14.56 29.48 14.95 31.28 14.96 31.98 14.89 32.32 14.46 33.07 13.96 34.16 13.29 35.45 12.44 36.83 11.34 38.05 10 39 8.58 39.59 7.35 39.98 6.84 40.37 6.73 40.93 7.07 41.45 7.52 42.1 8.26 42.8 8.97 43.61 9.67 44.54 9.8 45.37 9.82 46.77 10.41 48.27 12.05 49.57 12.75 49.68 13.5 49.57 14.27 49.34 15.15 49.25 16.02 49.27 16.68 49.6 17.37 50.53 17.82 52 18.13 52.63 18.75 53.19 19.51 53.78 20.43 54.27 21.21 54.75 21.83 55.31 22.17 55.83 22.18 56.53 21.99 57.55 22.09 58.49 22.39 59.24 22.82 60.01 23.28 60.66 23.9 61.23 24.51 61.79 25.01 62.22 25.84 63.16 26.66 64.22 27.45 65.39 28.3 67.04 28.68 67.34 29.36 67.56 30.16 67.92 30.96 68.28 31.88 68.77 32.62 69.47 33.05 70.24 33.14 71.3 32.83 72.18 32.28 72.79 31.49 73.14 30.6 73.23 29.74 73.21 29.03 73.1 28.47 73.01 28.33 72.99 24.45 75.86 21.1 81.27 16.54 83.93 16.45 84.38 16.11 85.38 15.29 86.64 13.37 87.62 13.04 87.8 12.74 87.87 12.27 88.03 11.95 88.21 11.5 89.07 11.31 89.27 10.8 89.66 9.97 90.23 9.12 90.91 8.12 91.56 7.38 92.38 6.7 92.97 6.31 93.49 5.83 94.46 5.5 95.45 4.96 96.77 4.23 98.28 2.96 100.41 1.58 103.1 0.38 105.59 0.32 107.44 0.65 107.96 1.31 108.3 2.11 108.66 2.94 108.91 3.74 109.27 4.42 109.49 4.92 109.92 5.24 110.55 5.14 111.81 4.83 112.7 4.25 113.42 4.08 114.33 4.28 114.83 4.45 115.43 4.88 116.2 5.46 116.99 6.04 117.78 6.75 118.59 7.59 119.54 8.59 120.39 9.48 121 10.26 121.47 10.94 121.7 11.51 121.79 12.09 121.76 12.52 121.83 12.92 122.01 13.3 122.3 13.95 123.45 14.51 125.05 15.08 126.66 15.61 127.68 16.34 127.67 17.17 127.11 17.98 126.65 19.06 127.06 19.97 128.36 20.68 129.99 20.98 131.43 21.38 132.43 21.73 132.83 22.2 132.67 22.83 132.42 23.73 132.22 24.46 132.22 25.18 132.22 26.03 132.35 27.04 132.39 27.9 132.41 28.49 132.39 29.05 132.48 29.19 132.5 30.33 137.92 30.15 144.99 31.66 148.49 37.23 145.88 39.45 140.29 40.12 139.81 41.51 138.63 42.96 137.12 43.52 135.69 44.13 133.23 45.4 129.59 46.98 125.88 48.42 123.66 49.29 122.87 50.42 121.53 51.74 119.88 53.1 118.11 54.45 116.35 55.63 114.67 56.6 113.43 57.19 112.59 58.29 109.85 59.94 104.99 61.61 100.02 62.73 97.17 63.48 94.03 64.25 88.44 65.18 82.77 66.57 79.26 68.14 77.88 69.48 76.93 70.62 76.29 71.33 75.59 71.5 73.17 71.61 68.77 71.47 64.2 71.42 61.4 71.42 61.4"/><g class="cls-4"><polygon class="cls-5" points="10.29 64.01 9.58 65.38 10.65 67.77 12.62 68.04 21.56 73.17 21.11 74.31 21.11 76.25 22.05 77.17 22.32 80.51 21.11 81.58 21.02 83.75 22.32 85.19 60.05 85.88 61.8 83.75 61.66 81.58 60.32 80.51 60.32 76.71 61.66 76.25 61.62 74.31 61.44 72.94 69.31 68.61 71.72 67.77 72.75 65.38 71.01 64.62 10.29 64.01 10.29 64.01"/><polygon class="cls-6" points="61.66 81.58 21.11 81.58 21.11 77.55 61.66 77.55 61.66 81.58 61.66 81.58"/><polygon class="cls-6" points="21.02 83.75 61.8 83.75 61.8 150.83 21.02 150.83 21.02 83.75 21.02 83.75"/><polygon class="cls-5" points="52.23 150.65 52.23 90.17 52.27 89.61 52.41 89.11 52.59 88.65 52.81 88.23 53.12 87.93 53.48 87.66 53.88 87.51 54.33 87.47 54.33 87.47 54.78 87.51 55.18 87.66 55.58 87.93 55.9 88.23 56.16 88.65 56.39 89.11 56.52 89.61 56.57 90.17 56.57 150.65 52.23 150.65 52.23 150.65"/><polygon class="cls-5" points="43.51 150.65 43.51 90.17 43.56 89.61 43.69 89.11 43.87 88.65 44.14 88.23 44.45 87.93 44.81 87.66 45.21 87.51 45.61 87.47 45.61 87.47 46.06 87.51 46.46 87.66 46.86 87.93 47.22 88.23 47.49 88.65 47.71 89.11 47.85 89.61 47.89 90.17 47.89 150.65 43.51 150.65 43.51 150.65"/><polygon class="cls-5" points="34.84 150.65 34.84 90.17 34.88 89.61 35.02 89.11 35.2 88.65 35.42 88.23 35.73 87.93 36.09 87.66 36.49 87.51 36.94 87.47 36.94 87.47 37.38 87.51 37.79 87.66 38.15 87.93 38.5 88.23 38.77 88.65 39 89.11 39.13 89.61 39.17 90.17 39.17 150.65 34.84 150.65 34.84 150.65"/><polygon class="cls-5" points="26.12 150.65 26.12 90.17 26.16 89.61 26.3 89.11 26.48 88.65 26.75 88.23 27.06 87.93 27.41 87.66 27.82 87.51 28.22 87.47 28.22 87.47 28.67 87.51 29.07 87.66 29.47 87.93 29.79 88.23 30.05 88.65 30.28 89.11 30.41 89.61 30.45 90.17 30.45 150.65 26.12 150.65 26.12 150.65"/><polygon class="cls-6" points="72.75 65.38 72.75 58.95 9.58 58.95 9.58 65.38 72.75 65.38 72.75 65.38"/><polygon class="cls-6" points="71.72 67.13 10.65 67.13 21.11 75.61 61.62 75.61 71.72 67.77 71.72 67.13"/><path class="cls-6" d="M64.52,44.16a1.42,1.42,0,0,1-1.28,1.53H47.9a1.42,1.42,0,0,1-1.28-1.53h0a1.42,1.42,0,0,1,1.28-1.53H63.25a1.42,1.42,0,0,1,1.28,1.53h0Z" transform="translate(-13.13 -12.07)"/><rect class="cls-7" x="36.44" y="32.98" width="12" height="3.95"/><path class="cls-6" d="M63,56.53a4.53,4.53,0,0,1-4.72,4.3H52.92a4.53,4.53,0,0,1-4.72-4.3V51.69a4.53,4.53,0,0,1,4.72-4.31h5.31A4.53,4.53,0,0,1,63,51.69v4.84Z" transform="translate(-13.13 -12.07)"/><path class="cls-6" d="M46.62,68.82a1.42,1.42,0,0,1,1.28-1.53H63.25a1.42,1.42,0,0,1,1.28,1.53h0a1.42,1.42,0,0,1-1.28,1.53H47.9a1.42,1.42,0,0,1-1.28-1.53h0Z" transform="translate(-13.13 -12.07)"/><rect class="cls-7" x="36.44" y="51.9" width="12" height="3.95"/><path class="cls-6" d="M48.2,56.44a4.53,4.53,0,0,1,4.72-4.31h5.31A4.53,4.53,0,0,1,63,56.44v4.84a4.53,4.53,0,0,1-4.72,4.3H52.92a4.53,4.53,0,0,1-4.72-4.3V56.44Z" transform="translate(-13.13 -12.07)"/><rect class="cls-7" x="6.45" y="42.47" width="34.49" height="3.95"/><polygon class="cls-5" points="42.37 68.61 43.24 70.22 45.2 70.48 43.78 71.74 44.12 73.51 42.37 72.67 40.62 73.51 40.96 71.74 39.54 70.48 41.49 70.22 42.37 68.61"/><polygon class="cls-5" points="50.72 68.61 51.59 70.22 53.54 70.48 52.13 71.74 52.46 73.51 50.72 72.67 48.97 73.51 49.3 71.74 47.89 70.48 49.84 70.22 50.72 68.61"/><polygon class="cls-5" points="59.06 68.61 59.93 70.22 61.89 70.48 60.47 71.74 60.81 73.51 59.06 72.67 57.31 73.51 57.65 71.74 56.23 70.48 58.19 70.22 59.06 68.61"/><polygon class="cls-5" points="33.74 68.61 34.62 70.22 36.57 70.48 35.16 71.74 35.49 73.51 33.74 72.67 32 73.51 32.33 71.74 30.92 70.48 32.87 70.22 33.74 68.61"/><polygon class="cls-8" points="24 68.61 24.88 70.22 26.83 70.48 25.41 71.74 25.75 73.51 24 72.67 22.25 73.51 22.59 71.74 21.18 70.48 23.13 70.22 24 68.61"/></g><path class="cls-9" d="M144.52,89.66c0,2.25,0,11.18.22,13.12a1.35,1.35,0,0,1-1.43.83c-0.9-1.27-3.07-3.9-9.6-11.33l-17.4-19.8c-2-2.33-7.12-8.48-8.7-10.12h-0.15a19.07,19.07,0,0,0-.37,4.87V83.59c0,3.52.08,13.27,1.35,15.52,0.45,0.83,1.95,1.27,3.82,1.42l2.33,0.23a1.37,1.37,0,0,1-.15,1.87c-3.37-.15-6-0.23-8.77-0.23-3.15,0-5.17.08-7.8,0.23a1.39,1.39,0,0,1-.15-1.87l2-.23c1.72-.22,2.92-0.67,3.3-1.5,1-2.7,1-11.85,1-15.45V61.91c0-2.1-.07-3.67-1.65-5.4a8.14,8.14,0,0,0-4.65-1.8l-1.27-.15a1.31,1.31,0,0,1,.15-1.88c3.15,0.23,7.12.23,8.48,0.23a24.32,24.32,0,0,0,3.45-.22c1.5,3.82,10.35,13.72,12.83,16.5l7.28,8.17c5.17,5.77,8.85,10,12.37,13.58h0.15c0.3-.37.3-1.58,0.3-3.15v-16c0-3.53-.07-13.28-1.5-15.53-0.45-.67-1.65-1.12-4.65-1.5L134,54.56a1.25,1.25,0,0,1,.15-1.88c3.45,0.15,6,.23,8.85.23,3.22,0,5.17-.07,7.72-0.22a1.32,1.32,0,0,1,.15,1.87l-1.05.15c-2.4.37-3.9,1-4.2,1.58-1.28,2.7-1.12,12-1.12,15.45V89.66Z" transform="translate(-13.13 -12.07)"/><path class="cls-9" d="M156.74,83.21c-1.95,0-2,.15-2,2,0,7.58,4.42,14,12.45,14,2.47,0,4.57-.75,6.9-3.67a1,1,0,0,1,1.35.9c-2.47,5.1-7.87,7-11.78,7a13.44,13.44,0,0,1-10.87-5,15.92,15.92,0,0,1-3.15-9.75c0-9.23,6.07-16.95,15.07-16.95,6.45,0,10.65,4.42,10.65,8.92a4.63,4.63,0,0,1-.3,2c-0.22.45-1.28,0.53-4.43,0.53H156.74ZM161.39,81c5.55,0,7.2-.3,7.8-0.75a1.51,1.51,0,0,0,.45-1.42c0-2.1-1.42-4.72-5.77-4.72s-8.25,4-8.32,6.52c0,0.15,0,.37.52,0.37h5.33Z" transform="translate(-13.13 -12.07)"/><path class="cls-9" d="M183.52,80.14c-1.73-4.2-2.62-4.95-4.5-5.4l-1.2-.3a1.24,1.24,0,0,1,.22-1.8c2.33,0.15,4.42.23,6.67,0.23s4.5-.08,6.53-0.23a1.18,1.18,0,0,1,.15,1.8l-1.73.3c-1,.15-1.65.6-1.65,1a15.38,15.38,0,0,0,1.2,3.9l4.65,11.47c0.67,1.73,1.35,3.08,1.35,3.23a16.81,16.81,0,0,0,1.73-3.6l3.67-9.08c1-2.4,1-3.37.67-4.35a4.2,4.2,0,0,0-3.45-2.62l-1.2-.3a1.17,1.17,0,0,1,.23-1.8c1.88,0.15,4.27.23,6.23,0.23,2.32,0,4.57-.08,7.12-0.23a1.18,1.18,0,0,1,.22,1.8l-1.58.3c-3,.6-2.85.83-2,3.45,0.83,2.47,4.87,12,5.7,14a7.81,7.81,0,0,0,1,2.1,12.11,12.11,0,0,0,1-2.1c1-2.18,4-10.13,5.1-13.28a10.73,10.73,0,0,0,.75-3.23c0-.45-0.45-0.82-1.35-1l-1.87-.3a1.17,1.17,0,0,1,.08-1.8c2.17,0.15,4,.23,5.92.23,1.43,0,3.23-.08,4.87-0.23a1.24,1.24,0,0,1,.22,1.8l-1.5.3c-1.8.37-2.48,1.42-4,4.72-2,4.2-5.62,13.2-7.05,17-1,2.7-1.95,4.87-2.55,6.83a1.51,1.51,0,0,1-1,.3,1.13,1.13,0,0,1-.83-0.3c-0.45-1.35-1.8-5.25-3.07-8.25l-3.6-8.62A37.76,37.76,0,0,0,203,82.61a35.43,35.43,0,0,0-1.65,3.67l-3.9,9.37c-1.35,3.23-2.4,5.93-3,7.65a1.2,1.2,0,0,1-.9.3,1.31,1.31,0,0,1-.9-0.3c-0.45-1.58-1.65-4.65-2.25-6.22Z" transform="translate(-13.13 -12.07)"/><path class="cls-9" d="M255.74,64.31c0-8.33-.75-9.23-5.17-9.6l-1.87-.15a1.47,1.47,0,0,1,.15-1.88c4.35,0.15,6.9.23,10,.23s5.55-.07,8.55-0.22a1.48,1.48,0,0,1,.15,1.87l-1.12.15c-4.42.6-4.58,1.65-4.58,9.6V92.14c0,5.93-.3,11.1-1.72,14.55-2.47,6-7.8,10.8-14.78,10.8-0.9,0-3.22-.08-3.22-1.58,0-1.27,1.13-3.45,2.7-3.45a9.31,9.31,0,0,1,2.77.45,11.53,11.53,0,0,0,3.15.53,3.2,3.2,0,0,0,3-2c1.72-3.52,1.95-14.77,1.95-18.83V64.31Z" transform="translate(-13.13 -12.07)"/><path class="cls-9" d="M276.52,83.21c-2,0-2,.15-2,2,0,7.58,4.42,14,12.45,14,2.47,0,4.58-.75,6.9-3.67a1,1,0,0,1,1.35.9c-2.47,5.1-7.87,7-11.78,7a13.44,13.44,0,0,1-10.87-5,15.92,15.92,0,0,1-3.15-9.75c0-9.23,6.08-16.95,15.08-16.95,6.45,0,10.65,4.42,10.65,8.92a4.61,4.61,0,0,1-.3,2c-0.22.45-1.28,0.53-4.42,0.53H276.52ZM281.17,81c5.55,0,7.2-.3,7.8-0.75a1.51,1.51,0,0,0,.45-1.42c0-2.1-1.42-4.72-5.77-4.72s-8.25,4-8.33,6.52c0,0.15,0,.37.53,0.37h5.32Z" transform="translate(-13.13 -12.07)"/><path class="cls-9" d="M301.94,80.89c0-2.93,0-3.3-2-4.65l-0.67-.45a1,1,0,0,1,.07-1.35,58.14,58.14,0,0,0,7.58-3.68,0.58,0.58,0,0,1,.6.52v4.35a0.71,0.71,0,0,0,.22.68c2.62-2.18,5.47-4.5,8.25-4.5a3.11,3.11,0,0,1,3.37,3,3.33,3.33,0,0,1-3.22,3.45,2.88,2.88,0,0,1-1.65-.52,6.15,6.15,0,0,0-3.3-1.2,3.33,3.33,0,0,0-2.7,1.5c-0.75,1-1,3.23-1,5.78V94c0,5.4.15,6.3,3,6.52l2.7,0.23a1.31,1.31,0,0,1-.15,1.87c-3.52-.15-5.7-0.23-8.32-0.23s-5,.08-6.9.23a1.31,1.31,0,0,1-.15-1.87l1.43-.23c2.78-.45,2.85-1.12,2.85-6.52V80.89Z" transform="translate(-13.13 -12.07)"/><path class="cls-9" d="M338.17,73.16a17.55,17.55,0,0,1,1.2,6.08,1.3,1.3,0,0,1-1.8.22C336.29,76.16,334,74,331,74a4.43,4.43,0,0,0-4.8,4.58c0,3.07,3.15,4.72,5.78,6.22,4,2.25,7.65,4.8,7.65,10.12,0,5.7-5.25,8.55-10.8,8.55-3.53,0-6.15-.75-8-2.25a22.31,22.31,0,0,1-.9-7.58,1.27,1.27,0,0,1,1.72-.07c1.28,4.12,3.68,7.72,8,7.72,2.7,0,5-1.57,5-4.8,0-3.45-3-5.33-5.78-6.9-4.35-2.48-7.43-5.1-7.43-9.23,0-5.48,4.5-8.55,10.2-8.55C334.71,71.81,337.49,72.56,338.17,73.16Z" transform="translate(-13.13 -12.07)"/><path class="cls-9" d="M349.71,83.21c-1.95,0-2,.15-2,2,0,7.58,4.42,14,12.45,14,2.47,0,4.57-.75,6.9-3.67a1,1,0,0,1,1.35.9c-2.47,5.1-7.87,7-11.78,7a13.44,13.44,0,0,1-10.87-5,15.92,15.92,0,0,1-3.15-9.75c0-9.23,6.07-16.95,15.07-16.95,6.45,0,10.65,4.42,10.65,8.92a4.63,4.63,0,0,1-.3,2c-0.22.45-1.28,0.53-4.43,0.53H349.71ZM354.37,81c5.55,0,7.2-.3,7.8-0.75a1.5,1.5,0,0,0,.45-1.42c0-2.1-1.42-4.72-5.78-4.72s-8.25,4-8.32,6.52c0,0.15,0,.37.52,0.37h5.33Z" transform="translate(-13.13 -12.07)"/><path class="cls-9" d="M371.46,117.86a2.79,2.79,0,0,1,3-3h1.42a2.72,2.72,0,0,0,2.48-1.35,47.89,47.89,0,0,0,4.35-8.33,11.3,11.3,0,0,0,.75-3.22c0-1.5-.3-2.4-1.27-5.18l-5.85-16c-1.27-3.53-1.8-5.33-4.43-5.85L370,74.51a1.32,1.32,0,0,1,.22-1.87c2.4,0.15,4.65.23,7.12,0.23,2,0,4.12-.08,6.53-0.23a1.25,1.25,0,0,1,.15,1.87l-1.87.37c-1.05.23-1.65,0.45-1.65,1,0,0.9,1.72,5.77,2.18,7l2.4,6.9c0.45,1.2,1.88,5.17,2.17,5.32a36.66,36.66,0,0,0,2.78-5.55l2.55-5.93c1.65-3.9,2.62-6.67,2.62-7.5,0-.52-0.45-1-1.8-1.27l-2.33-.37a1.25,1.25,0,0,1,.15-1.87c2.4,0.15,4.65.23,6.6,0.23s3.6-.08,5.7-0.23a1.25,1.25,0,0,1,.15,1.87l-1.27.23c-2.48.45-3.83,2.62-6.37,8l-4.2,8.62c-2.48,5-8.62,18.07-12.3,26.25-1.28,2.85-3.08,3.53-4.8,3.53A3,3,0,0,1,371.46,117.86Z" transform="translate(-13.13 -12.07)"/><path class="cls-9" d="M432.14,58.09c5.48-4.27,12.45-6.37,20.25-6.37a57.87,57.87,0,0,1,13.28,1.8,5.66,5.66,0,0,0,2.1.3c0.08,1.72.45,6.45,1.05,11a1.58,1.58,0,0,1-2,.15c-1.12-5.1-4.5-11-15.37-11-11.47,0-21.22,7.28-21.22,22.8,0,15.75,10,24.45,22.28,24.45,9.67,0,13.95-6.3,15.67-10.72a1.58,1.58,0,0,1,2,.3c-0.53,3.9-2.47,8.85-3.6,10.27a15.13,15.13,0,0,0-2.62.75A44.2,44.2,0,0,1,452,103.61c-6.75,0-13.2-1.35-18.68-5A24.18,24.18,0,0,1,422.69,78,24.92,24.92,0,0,1,432.14,58.09Z" transform="translate(-13.13 -12.07)"/><path class="cls-9" d="M503.54,87.34c0,9.37-6.45,16.12-15.83,16.12-8.62,0-15.37-6.08-15.37-15.45a15.76,15.76,0,0,1,16-16.2C496.71,71.81,503.54,78.11,503.54,87.34ZM487.41,74.06c-5,0-8.62,4.72-8.62,13,0,6.83,3.08,14.18,9.67,14.18s8.62-6.9,8.62-12.68C497.09,82.16,494.54,74.06,487.41,74.06Z" transform="translate(-13.13 -12.07)"/><path class="cls-9" d="M513.66,91.39c0,5.18,1.27,8.62,7,8.62a9.81,9.81,0,0,0,6.08-2.25c1-.9,1.5-2,1.5-4.35V81.11c0-4.87-.53-5-2.78-5.92l-1-.37a1,1,0,0,1,.08-1.65c3-.08,7.12-0.6,8.77-1.35a0.74,0.74,0,0,1,.68.52c-0.15,1.43-.23,3.75-0.23,6.53v12.6c0,5.92.23,8.17,2.33,8.17a14.18,14.18,0,0,0,2.92-.37c0.45,0.37.53,1.88-.07,2.18-2.93.6-7.27,1.35-9.82,2.78a1,1,0,0,1-.9-0.53v-3.08c0-.67-0.22-1-0.67-1-2.25,1.42-5.93,3.9-10.35,3.9-6.6,0-9.07-3.3-9.07-9.37V81.56c0-4.73,0-5.4-2.25-6.37l-0.9-.37a1.11,1.11,0,0,1,.15-1.65,26.55,26.55,0,0,0,8-1.35,0.76,0.76,0,0,1,.75.52,57.14,57.14,0,0,0-.22,6.53V91.39Z" transform="translate(-13.13 -12.07)"/><path class="cls-9" d="M547.49,80.89c0-2.93,0-3.3-2-4.65l-0.68-.45a1,1,0,0,1,.08-1.35,58.19,58.19,0,0,0,7.57-3.68,0.58,0.58,0,0,1,.6.52v4.35a0.72,0.72,0,0,0,.22.68c2.62-2.18,5.48-4.5,8.25-4.5a3.11,3.11,0,0,1,3.37,3,3.33,3.33,0,0,1-3.22,3.45,2.88,2.88,0,0,1-1.65-.52,6.15,6.15,0,0,0-3.3-1.2A3.33,3.33,0,0,0,554,78c-0.75,1-1,3.23-1,5.78V94c0,5.4.15,6.3,3,6.52l2.7,0.23a1.31,1.31,0,0,1-.15,1.87c-3.53-.15-5.7-0.23-8.33-0.23s-4.95.08-6.9,0.23a1.31,1.31,0,0,1-.15-1.87l1.42-.23c2.78-.45,2.85-1.12,2.85-6.52V80.89Z" transform="translate(-13.13 -12.07)"/><path class="cls-9" d="M577.26,76c-1.28,0-1.35.23-1.35,1.8v14c0,4.35.53,8.32,5.48,8.32a5.71,5.71,0,0,0,2-.38c0.68-.22,1.65-1,1.88-1A1,1,0,0,1,586,100a10.38,10.38,0,0,1-7.87,3.45c-6.45,0-7.8-3.6-7.8-8.1V78.19c0-2-.08-2.18-1.58-2.18h-2.1a1.25,1.25,0,0,1-.22-1.57,14.9,14.9,0,0,0,4.8-2.33,18.58,18.58,0,0,0,3.15-4.42,1.42,1.42,0,0,1,1.58.37v3.37c0,1.35.07,1.42,1.35,1.42h8.32a2.4,2.4,0,0,1,.08,3.15h-8.47Z" transform="translate(-13.13 -12.07)"/><path class="cls-9" d="M605.46,73.16a17.5,17.5,0,0,1,1.2,6.08,1.31,1.31,0,0,1-1.8.22c-1.27-3.3-3.52-5.47-6.6-5.47a4.43,4.43,0,0,0-4.8,4.58c0,3.07,3.15,4.72,5.77,6.22,4,2.25,7.65,4.8,7.65,10.12,0,5.7-5.25,8.55-10.8,8.55-3.53,0-6.15-.75-8-2.25a22.35,22.35,0,0,1-.9-7.58,1.28,1.28,0,0,1,1.73-.07c1.27,4.12,3.67,7.72,7.95,7.72,2.7,0,5-1.57,5-4.8,0-3.45-3-5.33-5.77-6.9-4.35-2.48-7.43-5.1-7.43-9.23,0-5.48,4.5-8.55,10.2-8.55C602,71.81,604.79,72.56,605.46,73.16Z" transform="translate(-13.13 -12.07)"/><path class="cls-10" d="M99.47,129.81V146H97.36V129.81h2.11Z" transform="translate(-13.13 -12.07)"/><path class="cls-10" d="M103,137.52c0-1.22,0-2.18-.1-3.15h1.87l0.12,1.9h0a4.3,4.3,0,0,1,3.84-2.16c1.61,0,4.1,1,4.1,4.94V146h-2.11v-6.7c0-1.87-.7-3.46-2.69-3.46A3,3,0,0,0,105.3,138a3.14,3.14,0,0,0-.14,1v7H103v-8.47Z" transform="translate(-13.13 -12.07)"/><path class="cls-10" d="M126.4,128.95v14c0,1,0,2.21.1,3h-1.9l-0.1-2h0a4.26,4.26,0,0,1-3.94,2.28c-2.81,0-5-2.38-5-5.9,0-3.89,2.4-6.24,5.21-6.24a3.86,3.86,0,0,1,3.5,1.75h0v-6.91h2.11Zm-2.11,10.15a3.89,3.89,0,0,0-.1-0.91,3.11,3.11,0,0,0-3-2.42c-2.18,0-3.48,1.92-3.48,4.46,0,2.38,1.18,4.32,3.43,4.32a3.2,3.2,0,0,0,3.1-2.52,3.64,3.64,0,0,0,.1-0.91v-2Z" transform="translate(-13.13 -12.07)"/><path class="cls-10" d="M131.1,140.54c0,2.86,1.85,4,4,4a8,8,0,0,0,3.22-.58l0.38,1.49a9.46,9.46,0,0,1-3.89.74c-3.55,0-5.71-2.38-5.71-5.86s2.09-6.29,5.47-6.29c3.79,0,4.78,3.34,4.78,5.47a5.5,5.5,0,0,1-.07,1Zm6.17-1.51c0-1.32-.55-3.43-2.9-3.43-2.16,0-3.07,2-3.24,3.43h6.14Z" transform="translate(-13.13 -12.07)"/><path class="cls-10" d="M141.92,138.16c0-1.49,0-2.69-.1-3.79h1.9l0.12,2h0a4.48,4.48,0,0,1,4.1-2.26c2.83,0,4.94,2.38,4.94,5.9,0,4.18-2.57,6.24-5.28,6.24a4,4,0,0,1-3.58-1.82h0v6.31h-2.11V138.16Zm2.11,3.09a3.37,3.37,0,0,0,.1.86,3.23,3.23,0,0,0,3.14,2.47c2.23,0,3.53-1.82,3.53-4.49,0-2.33-1.2-4.32-3.43-4.32a3.37,3.37,0,0,0-3.22,2.59,5.78,5.78,0,0,0-.12.86v2Z" transform="translate(-13.13 -12.07)"/><path class="cls-10" d="M156.8,140.54c0,2.86,1.85,4,4,4A8,8,0,0,0,164,144l0.38,1.49a9.46,9.46,0,0,1-3.89.74c-3.55,0-5.71-2.38-5.71-5.86s2.09-6.29,5.47-6.29c3.79,0,4.78,3.34,4.78,5.47a5.5,5.5,0,0,1-.07,1ZM163,139c0-1.32-.55-3.43-2.9-3.43-2.16,0-3.07,2-3.24,3.43H163Z" transform="translate(-13.13 -12.07)"/><path class="cls-10" d="M167.63,137.52c0-1.22,0-2.18-.1-3.15h1.87l0.12,1.9h0a4.3,4.3,0,0,1,3.84-2.16c1.61,0,4.1,1,4.1,4.94V146H175.4v-6.7c0-1.87-.7-3.46-2.69-3.46a3,3,0,0,0-2.83,2.16,3.16,3.16,0,0,0-.14,1v7h-2.11v-8.47Z" transform="translate(-13.13 -12.07)"/><path class="cls-10" d="M191,128.95v14c0,1,0,2.21.1,3h-1.9l-0.1-2h0a4.26,4.26,0,0,1-3.94,2.28c-2.81,0-5-2.38-5-5.9,0-3.89,2.4-6.24,5.21-6.24a3.86,3.86,0,0,1,3.5,1.75h0v-6.91H191Zm-2.11,10.15a3.91,3.91,0,0,0-.1-0.91,3.11,3.11,0,0,0-3-2.42c-2.18,0-3.48,1.92-3.48,4.46,0,2.38,1.18,4.32,3.43,4.32a3.2,3.2,0,0,0,3.1-2.52,3.67,3.67,0,0,0,.1-0.91v-2Z" transform="translate(-13.13 -12.07)"/><path class="cls-10" d="M195.68,140.54c0,2.86,1.85,4,4,4a8,8,0,0,0,3.22-.58l0.38,1.49a9.46,9.46,0,0,1-3.89.74c-3.55,0-5.71-2.38-5.71-5.86s2.09-6.29,5.47-6.29c3.79,0,4.78,3.34,4.78,5.47a5.51,5.51,0,0,1-.07,1Zm6.17-1.51c0-1.32-.55-3.43-2.9-3.43-2.16,0-3.07,2-3.24,3.43h6.14Z" transform="translate(-13.13 -12.07)"/><path class="cls-10" d="M206.51,137.52c0-1.22,0-2.18-.1-3.15h1.87l0.12,1.9h0a4.3,4.3,0,0,1,3.84-2.16c1.61,0,4.1,1,4.1,4.94V146h-2.11v-6.7c0-1.87-.7-3.46-2.69-3.46a3,3,0,0,0-2.83,2.16,3.16,3.16,0,0,0-.14,1v7h-2.11v-8.47Z" transform="translate(-13.13 -12.07)"/><path class="cls-10" d="M228.11,145.58a8.16,8.16,0,0,1-3.34.67c-3.5,0-5.78-2.38-5.78-6a5.92,5.92,0,0,1,6.24-6.19,6.66,6.66,0,0,1,2.93.62l-0.48,1.61a5.16,5.16,0,0,0-2.45-.55c-2.66,0-4.1,2-4.1,4.42,0,2.69,1.73,4.34,4,4.34a6,6,0,0,0,2.59-.55Z" transform="translate(-13.13 -12.07)"/><path class="cls-10" d="M231.63,140.54c0,2.86,1.85,4,4,4a8,8,0,0,0,3.22-.58l0.38,1.49a9.46,9.46,0,0,1-3.89.74c-3.55,0-5.71-2.38-5.71-5.86s2.09-6.29,5.47-6.29c3.79,0,4.78,3.34,4.78,5.47a5.56,5.56,0,0,1-.07,1ZM237.8,139c0-1.32-.55-3.43-2.9-3.43-2.16,0-3.07,2-3.24,3.43h6.14Z" transform="translate(-13.13 -12.07)"/><path class="cls-10" d="M249.15,140.25a2.52,2.52,0,1,1,2.54-2.52,2.5,2.5,0,0,1-2.54,2.52h0Z" transform="translate(-13.13 -12.07)"/><path class="cls-10" d="M261.56,129.81V146h-2.11V129.81h2.11Z" transform="translate(-13.13 -12.07)"/><path class="cls-10" d="M265.14,137.52c0-1.22,0-2.18-.1-3.15h1.87l0.12,1.9h0a4.3,4.3,0,0,1,3.84-2.16c1.61,0,4.1,1,4.1,4.94V146h-2.11v-6.7c0-1.87-.7-3.46-2.69-3.46a3,3,0,0,0-2.83,2.16,3.16,3.16,0,0,0-.14,1v7h-2.11v-8.47Z" transform="translate(-13.13 -12.07)"/><path class="cls-10" d="M280.9,131.59v2.78h3V136h-3v6.26c0,1.44.41,2.26,1.58,2.26a4,4,0,0,0,1.22-.14l0.1,1.61a5.78,5.78,0,0,1-1.87.29,3,3,0,0,1-2.28-.89,4.54,4.54,0,0,1-.82-3V136H277v-1.61h1.8v-2.14Z" transform="translate(-13.13 -12.07)"/><path class="cls-10" d="M287.36,140.54c0,2.86,1.85,4,4,4a8,8,0,0,0,3.21-.58l0.38,1.49a9.47,9.47,0,0,1-3.89.74c-3.55,0-5.71-2.38-5.71-5.86s2.09-6.29,5.47-6.29c3.79,0,4.78,3.34,4.78,5.47a5.43,5.43,0,0,1-.07,1Zm6.17-1.51c0-1.32-.55-3.43-2.9-3.43-2.16,0-3.07,2-3.24,3.43h6.14Z" transform="translate(-13.13 -12.07)"/><path class="cls-10" d="M308.12,144.28c0,2.69-.55,4.29-1.66,5.33a6.38,6.38,0,0,1-4.25,1.39,7.5,7.5,0,0,1-3.86-1l0.53-1.63a6.33,6.33,0,0,0,3.41.94c2.16,0,3.74-1.13,3.74-4.08V144h0a4.12,4.12,0,0,1-3.7,1.94c-2.88,0-4.94-2.45-4.94-5.69,0-3.94,2.57-6.14,5.26-6.14a3.88,3.88,0,0,1,3.62,2h0l0.07-1.73h1.87c-0.07.82-.1,1.75-0.1,3.17v6.74ZM306,138.93a2.93,2.93,0,0,0-.12-0.94,3,3,0,0,0-3-2.26c-2,0-3.46,1.7-3.46,4.42,0,2.26,1.18,4.18,3.43,4.18a3,3,0,0,0,2.93-2.18A3.47,3.47,0,0,0,306,141v-2.09Z" transform="translate(-13.13 -12.07)"/><path class="cls-10" d="M311.62,138c0-1.37,0-2.54-.1-3.62h1.85l0.1,2.28h0.07a3.51,3.51,0,0,1,3.24-2.54,2.19,2.19,0,0,1,.58.07v2a6.49,6.49,0,0,0-.74,0,3,3,0,0,0-2.83,2.69,6.78,6.78,0,0,0-.07,1V146H311.6Z" transform="translate(-13.13 -12.07)"/><path class="cls-10" d="M320.55,132.24a1.36,1.36,0,0,1,0-2.71,1.3,1.3,0,0,1,1.35,1.34,1.32,1.32,0,0,1-1.37,1.37h0Zm-1,13.75V134.37h2.11V146h-2.11Z" transform="translate(-13.13 -12.07)"/><path class="cls-10" d="M327.71,131.59v2.78h3V136h-3v6.26c0,1.44.41,2.26,1.58,2.26a4,4,0,0,0,1.22-.14l0.1,1.61a5.77,5.77,0,0,1-1.87.29,3,3,0,0,1-2.28-.89,4.52,4.52,0,0,1-.82-3V136h-1.8v-1.61h1.8v-2.14Z" transform="translate(-13.13 -12.07)"/><path class="cls-10" d="M334.09,134.37l2.52,6.86c0.29,0.77.58,1.68,0.77,2.38h0c0.21-.7.46-1.58,0.74-2.42l2.3-6.82h2.23l-3.17,8.28c-1.51,4-2.54,6-4,7.29a6,6,0,0,1-2.59,1.34l-0.53-1.78a4.83,4.83,0,0,0,1.85-1,6.65,6.65,0,0,0,1.78-2.35,1.35,1.35,0,0,0,.17-0.5,1.26,1.26,0,0,0-.17-0.53l-4.27-10.73h2.3Z" transform="translate(-13.13 -12.07)"/><path class="cls-10" d="M351.32,140.25a2.52,2.52,0,1,1,2.54-2.52,2.5,2.5,0,0,1-2.54,2.52h0Z" transform="translate(-13.13 -12.07)"/><path class="cls-10" d="M361.62,129.81h8.71v1.75h-6.6v5.38h6.09v1.73h-6.09V146h-2.11V129.81Z" transform="translate(-13.13 -12.07)"/><path class="cls-10" d="M380.33,143.2a19.31,19.31,0,0,0,.17,2.78h-1.9l-0.19-1.46h-0.07a4.29,4.29,0,0,1-3.55,1.73,3.31,3.31,0,0,1-3.55-3.34c0-2.81,2.5-4.34,7-4.32v-0.24a2.39,2.39,0,0,0-2.64-2.69,5.59,5.59,0,0,0-3,.86l-0.48-1.42a7.54,7.54,0,0,1,3.84-1c3.58,0,4.44,2.42,4.44,4.75v4.34Zm-2.06-3.14c-2.3,0-4.92.36-4.92,2.62a1.85,1.85,0,0,0,2,2,2.93,2.93,0,0,0,2.86-1.94,2.15,2.15,0,0,0,.1-0.67v-2Z" transform="translate(-13.13 -12.07)"/><path class="cls-10" d="M384.73,132.24a1.36,1.36,0,0,1,0-2.71,1.3,1.3,0,0,1,1.34,1.34,1.32,1.32,0,0,1-1.37,1.37h0Zm-1,13.75V134.37h2.11V146h-2.11Z" transform="translate(-13.13 -12.07)"/><path class="cls-10" d="M389.36,138c0-1.37,0-2.54-.09-3.62h1.85l0.1,2.28h0.07a3.51,3.51,0,0,1,3.24-2.54,2.18,2.18,0,0,1,.57.07v2a6.49,6.49,0,0,0-.74,0,3,3,0,0,0-2.83,2.69,6.53,6.53,0,0,0-.07,1V146h-2.11Z" transform="translate(-13.13 -12.07)"/><path class="cls-10" d="M397.28,137.52c0-1.22,0-2.18-.1-3.15h1.87l0.12,1.9h0a4.3,4.3,0,0,1,3.84-2.16c1.61,0,4.1,1,4.1,4.94V146h-2.11v-6.7c0-1.87-.7-3.46-2.69-3.46a3,3,0,0,0-2.83,2.16,3.16,3.16,0,0,0-.14,1v7h-2.11v-8.47Z" transform="translate(-13.13 -12.07)"/><path class="cls-10" d="M411.8,140.54c0,2.86,1.85,4,4,4A8,8,0,0,0,419,144l0.38,1.49a9.46,9.46,0,0,1-3.89.74c-3.55,0-5.71-2.38-5.71-5.86s2.09-6.29,5.47-6.29c3.79,0,4.78,3.34,4.78,5.47a5.36,5.36,0,0,1-.07,1ZM418,139c0-1.32-.55-3.43-2.9-3.43-2.16,0-3.07,2-3.24,3.43H418Z" transform="translate(-13.13 -12.07)"/><path class="cls-10" d="M422.33,143.85a6,6,0,0,0,2.81.82c1.51,0,2.23-.74,2.23-1.73s-0.6-1.56-2.13-2.14c-2.11-.77-3.1-1.9-3.1-3.29,0-1.87,1.54-3.41,4-3.41a5.39,5.39,0,0,1,2.83.72l-0.5,1.51a4.76,4.76,0,0,0-2.38-.67,1.67,1.67,0,0,0-1.92,1.58c0,1,.67,1.42,2.18,2,2,0.74,3,1.75,3,3.5,0,2.06-1.61,3.5-4.32,3.5a6.61,6.61,0,0,1-3.26-.82Z" transform="translate(-13.13 -12.07)"/><path class="cls-10" d="M431.84,143.85a6,6,0,0,0,2.81.82c1.51,0,2.23-.74,2.23-1.73s-0.6-1.56-2.13-2.14c-2.11-.77-3.1-1.9-3.1-3.29,0-1.87,1.54-3.41,4-3.41a5.39,5.39,0,0,1,2.83.72l-0.5,1.51a4.76,4.76,0,0,0-2.38-.67,1.67,1.67,0,0,0-1.92,1.58c0,1,.67,1.42,2.18,2,2,0.74,3,1.75,3,3.5,0,2.06-1.61,3.5-4.32,3.5a6.61,6.61,0,0,1-3.26-.82Z" transform="translate(-13.13 -12.07)"/><path class="cls-10" d="M448.33,140.25a2.52,2.52,0,1,1,2.54-2.52,2.5,2.5,0,0,1-2.54,2.52h0Z" transform="translate(-13.13 -12.07)"/><path class="cls-10" d="M472,148.36c-2.18-.58-4.32-1.22-6.19-1.87a3.28,3.28,0,0,0-1-.24c-3.87-.14-7.13-3-7.13-8.18s3.14-8.52,7.51-8.52,7.27,3.41,7.27,8.18c0,4.15-1.92,6.79-4.61,7.75v0.1c1.61,0.41,3.36.79,4.73,1Zm-6.91-3.82c3.31,0,5.18-3,5.18-6.72,0-3.24-1.68-6.58-5.11-6.58s-5.26,3.27-5.26,6.77,1.87,6.53,5.16,6.53h0Z" transform="translate(-13.13 -12.07)"/><path class="cls-10" d="M484.85,142.82c0,1.2,0,2.26.1,3.17h-1.87l-0.12-1.9h0a4.33,4.33,0,0,1-3.84,2.16c-1.82,0-4-1-4-5.09v-6.79h2.11v6.41c0,2.21.7,3.72,2.59,3.72a3,3,0,0,0,2.79-1.94,2.92,2.92,0,0,0,.19-1.08v-7.1h2.11v8.45Z" transform="translate(-13.13 -12.07)"/><path class="cls-10" d="M496.54,143.2a19.6,19.6,0,0,0,.17,2.78h-1.9l-0.19-1.46h-0.07a4.3,4.3,0,0,1-3.55,1.73,3.31,3.31,0,0,1-3.55-3.34c0-2.81,2.5-4.34,7-4.32v-0.24a2.39,2.39,0,0,0-2.64-2.69,5.59,5.59,0,0,0-3,.86l-0.48-1.42a7.54,7.54,0,0,1,3.84-1c3.57,0,4.44,2.42,4.44,4.75v4.34Zm-2.06-3.14c-2.3,0-4.92.36-4.92,2.62a1.85,1.85,0,0,0,2,2,2.93,2.93,0,0,0,2.86-1.94,2.21,2.21,0,0,0,.1-0.67v-2Z" transform="translate(-13.13 -12.07)"/><path class="cls-10" d="M499.92,128.95H502v17h-2.11v-17Z" transform="translate(-13.13 -12.07)"/><path class="cls-10" d="M506.55,132.24a1.36,1.36,0,0,1,0-2.71,1.3,1.3,0,0,1,1.34,1.34,1.32,1.32,0,0,1-1.37,1.37h0Zm-1,13.75V134.37h2.11V146h-2.11Z" transform="translate(-13.13 -12.07)"/><path class="cls-10" d="M513.7,131.59v2.78h3V136h-3v6.26c0,1.44.41,2.26,1.58,2.26a4,4,0,0,0,1.22-.14l0.1,1.61a5.78,5.78,0,0,1-1.87.29,3,3,0,0,1-2.28-.89,4.54,4.54,0,0,1-.82-3V136h-1.8v-1.61h1.8v-2.14Z" transform="translate(-13.13 -12.07)"/><path class="cls-10" d="M520.08,134.37l2.52,6.86c0.29,0.77.57,1.68,0.77,2.38h0c0.22-.7.46-1.58,0.74-2.42l2.3-6.82h2.23l-3.17,8.28c-1.51,4-2.54,6-4,7.29a6,6,0,0,1-2.59,1.34l-0.53-1.78a4.81,4.81,0,0,0,1.85-1,6.63,6.63,0,0,0,1.78-2.35,1.35,1.35,0,0,0,.17-0.5,1.27,1.27,0,0,0-.17-0.53l-4.27-10.73h2.3Z" transform="translate(-13.13 -12.07)"/><path class="cls-10" d="M535.52,143.44a7.07,7.07,0,0,0,3.72,1.06c2.14,0,3.39-1.1,3.39-2.76,0-1.49-.87-2.38-3-3.19-2.64-1-4.27-2.35-4.27-4.61,0-2.52,2.09-4.39,5.23-4.39a7.24,7.24,0,0,1,3.55.79l-0.58,1.7a6,6,0,0,0-3-.77c-2.21,0-3,1.32-3,2.42,0,1.51,1,2.26,3.22,3.12,2.73,1.08,4.1,2.38,4.1,4.75s-1.82,4.68-5.64,4.68A8.34,8.34,0,0,1,535,145.2Z" transform="translate(-13.13 -12.07)"/><path class="cls-10" d="M548.88,140.54c0,2.86,1.85,4,4,4a8,8,0,0,0,3.21-.58l0.38,1.49a9.47,9.47,0,0,1-3.89.74c-3.55,0-5.71-2.38-5.71-5.86s2.09-6.29,5.47-6.29c3.79,0,4.78,3.34,4.78,5.47a5.36,5.36,0,0,1-.07,1Zm6.17-1.51c0-1.32-.55-3.43-2.9-3.43-2.16,0-3.07,2-3.24,3.43h6.14Z" transform="translate(-13.13 -12.07)"/><path class="cls-10" d="M559.73,138c0-1.37,0-2.54-.09-3.62h1.85l0.1,2.28h0.07a3.51,3.51,0,0,1,3.24-2.54,2.18,2.18,0,0,1,.57.07v2a6.48,6.48,0,0,0-.74,0,3,3,0,0,0-2.83,2.69,6.52,6.52,0,0,0-.07,1V146h-2.11Z" transform="translate(-13.13 -12.07)"/><path class="cls-10" d="M569,134.37l2.28,6.5c0.38,1.08.7,2,.94,3h0.07c0.26-1,.6-1.92,1-3l2.26-6.5h2.21L573.15,146h-2l-4.42-11.62H569Z" transform="translate(-13.13 -12.07)"/><path class="cls-10" d="M580.71,132.24a1.36,1.36,0,0,1,0-2.71,1.3,1.3,0,0,1,1.34,1.34,1.32,1.32,0,0,1-1.37,1.37h0Zm-1,13.75V134.37h2.11V146H579.7Z" transform="translate(-13.13 -12.07)"/><path class="cls-10" d="M593.59,145.58a8.15,8.15,0,0,1-3.34.67c-3.5,0-5.78-2.38-5.78-6a5.92,5.92,0,0,1,6.24-6.19,6.66,6.66,0,0,1,2.93.62l-0.48,1.61a5.18,5.18,0,0,0-2.45-.55c-2.66,0-4.1,2-4.1,4.42,0,2.69,1.73,4.34,4,4.34a6,6,0,0,0,2.59-.55Z" transform="translate(-13.13 -12.07)"/><path class="cls-10" d="M597.12,140.54c0,2.86,1.85,4,4,4a8,8,0,0,0,3.21-.58l0.38,1.49a9.47,9.47,0,0,1-3.89.74c-3.55,0-5.71-2.38-5.71-5.86s2.09-6.29,5.47-6.29c3.79,0,4.78,3.34,4.78,5.47a5.56,5.56,0,0,1-.07,1Zm6.17-1.51c0-1.32-.55-3.43-2.9-3.43-2.16,0-3.07,2-3.24,3.43h6.14Z" transform="translate(-13.13 -12.07)"/></svg>